<svg style="height: 512px; width: 512px;" xmlns="http://www.w3.org/2000/svg" viewBox="0 0 512 512"><defs><filter id="shadow-1" height="300%" width="300%" x="-100%" y="-100%"><feFlood flood-color="rgba(0, 0, 0, 1)" result="flood"></feFlood><feComposite in="flood" in2="SourceGraphic" operator="atop" result="composite"></feComposite><feGaussianBlur in="composite" stdDeviation="4" result="blur"></feGaussianBlur><feOffset dx="8" dy="8" result="offset"></feOffset><feComposite in="SourceGraphic" in2="offset" operator="over"></feComposite></filter></defs><rect fill="#3693d4" fill-opacity="1" height="512" width="512" rx="32" ry="32"></rect><g class="" style="" transform="translate(0,0)"><path d="M255.997 16.004c-120 0-239.997 60-239.997 149.998C16 226.002 61 256 61 316c0 45-15 45-15 75 0 14.998 48.01 32.002 89.998 44.998v60h239.997v-60s90.567-27.957 90-45c-.933-27.947-15-30-15-74.998 0-30 45.642-91.42 44.998-149.998 0-90-119.998-149.998-239.996-149.998zm-90 179.997c33.137 0 60 26.864 60 60 0 33.136-26.863 60-60 60C132.863 316 106 289.136 106 256c0-33.136 26.862-60 59.998-60zm179.998 0c33.136 0 60 26.864 60 60 0 33.136-26.864 60-60 60-33.136 0-60-26.864-60-60 0-33.136 26.864-60 60-60zm-89.998 105c15 0 45 60 45 75 0 29.998 0 29.998-15 29.998h-60c-15 0-15 0-15-30 0-15 30-74.998 45-74.998z" fill="#f9ee78" fill-opacity="1" stroke="#000000" stroke-opacity="1" stroke-width="4" filter="url(#shadow-1)"></path></g></svg>