<svg height="512" width="512" style="height: 512px; width: 512px;" xmlns="http://www.w3.org/2000/svg"
	viewBox="0 0 512 512">
	<defs>
		<filter id="shadow-1" height="300%" width="300%" x="-100%" y="-100%">
			<feFlood flood-color="rgba(0, 0, 0, 1)" result="flood"></feFlood>
			<feComposite in="flood" in2="SourceGraphic" operator="atop" result="composite"></feComposite>
			<feGaussianBlur in="composite" stdDeviation="4" result="blur"></feGaussianBlur>
			<feOffset dx="8" dy="8" result="offset"></feOffset>
			<feComposite in="SourceGraphic" in2="offset" operator="over"></feComposite>
		</filter>
	</defs>
	<rect fill="#3693d4" fill-opacity="1" height="512" width="512" rx="32" ry="32"></rect>
	<g class="" style="" transform="translate(0,0)">
		<path
			d="M251.188 28.538c-202.97 2.955-190.282 230.2-126.782 409.47-14.678 9.41-17.29 6.385-15.75 17.062 1.105 7.65 12.483 23.233 17.563 25.844s9.372 2.85 17.03 2.343 60.337-8.77 49.22-22.625c-48-67.4-126.572-365.46 63.53-374.062 190.102 8.603 111.53 306.66 63.53 374.062-11.117 13.855 41.562 22.117 49.22 22.625s11.95.267 17.03-2.343 16.46-18.194 17.564-25.844c1.54-10.678-1.072-7.65-15.75-17.063 63.5-179.27 76.187-406.514-126.78-409.469-1.6-.023-3.19-.005-4.814 0-1.625-.004-3.214-.023-4.813 0zm-45.625 22.157c6.903 0 12.5 5.596 12.5 12.5s-5.597 12.5-12.5 12.5-12.5-5.597-12.5-12.5 5.596-12.5 12.5-12.5zm100.875 0c6.903 0 12.5 5.596 12.5 12.5s-5.597 12.5-12.5 12.5-12.5-5.597-12.5-12.5 5.596-12.5 12.5-12.5zM135.594 109.32c6.903 0 12.5 5.596 12.5 12.5s-5.597 12.5-12.5 12.5-12.5-5.597-12.5-12.5 5.596-12.5 12.5-12.5zm240.812 0c6.904 0 12.5 5.596 12.5 12.5s-5.596 12.5-12.5 12.5-12.5-5.597-12.5-12.5 5.597-12.5 12.5-12.5zm-266.844 96c6.904 0 12.5 5.596 12.5 12.5s-5.596 12.5-12.5 12.5-12.5-5.597-12.5-12.5 5.597-12.5 12.5-12.5zm292.875 0c6.904 0 12.5 5.596 12.5 12.5s-5.596 12.5-12.5 12.5-12.5-5.597-12.5-12.5 5.597-12.5 12.5-12.5zM118.22 307.82c6.902 0 12.5 5.596 12.5 12.5s-5.598 12.5-12.5 12.5-12.5-5.597-12.5-12.5 5.595-12.5 12.5-12.5zm275.56 0c6.905 0 12.5 5.596 12.5 12.5s-5.595 12.5-12.5 12.5-12.5-5.597-12.5-12.5 5.598-12.5 12.5-12.5zm-254.936 84.062c6.903 0 12.5 5.597 12.5 12.5s-5.597 12.5-12.5 12.5-12.5-5.596-12.5-12.5 5.596-12.5 12.5-12.5zm234.312 0c6.904 0 12.5 5.597 12.5 12.5s-5.596 12.5-12.5 12.5-12.5-5.596-12.5-12.5 5.597-12.5 12.5-12.5z"
			fill="#f9ee78" fill-opacity="1" stroke="#000000" stroke-opacity="1" stroke-width="4" filter="url(#shadow-1)"
			transform="translate(0, 512) scale(1, -1) rotate(0, 256, 256) skewX(0) skewY(0)"></path>
	</g>
</svg>
