<svg style="height: 512px; width: 512px;" xmlns="http://www.w3.org/2000/svg" viewBox="0 0 512 512"><defs><filter id="shadow-1" height="300%" width="300%" x="-100%" y="-100%"><feFlood flood-color="rgba(0, 0, 0, 1)" result="flood"></feFlood><feComposite in="flood" in2="SourceGraphic" operator="atop" result="composite"></feComposite><feGaussianBlur in="composite" stdDeviation="4" result="blur"></feGaussianBlur><feOffset dx="8" dy="8" result="offset"></feOffset><feComposite in="SourceGraphic" in2="offset" operator="over"></feComposite></filter></defs><rect fill="#3693d4" fill-opacity="1" height="512" width="512" rx="32" ry="32"></rect><g class="" style="" transform="translate(0,0)"><path d="M81 21.499c-12.81 0-23 10.192-23 23.002 0 12.81 10.19 23 23 23s23.002-10.19 23.002-23S93.81 21.499 81 21.499zm350 0c-12.81 0-23.002 10.192-23.002 23.002 0 12.81 10.192 23 23.002 23 12.81 0 23-10.19 23-23s-10.19-23.002-23-23.002zM110.18 73.212a41.25 41.25 0 0 1-15.11 9.781l28.666 45.867 14.983-9.988zm291.64 0l-28.539 45.66 14.983 9.988 28.666-45.867a41.25 41.25 0 0 1-15.11-9.781zm-242.966 53.87l-36.143 24.095 6.652 19.955c9.215-12.422 23.339-21.987 39.614-28.912 1.172-.5 2.37-.973 3.568-1.448zm194.292 0l-13.69 13.69c1.197.475 2.395.949 3.567 1.448 16.275 6.925 30.399 16.49 39.614 28.912l6.652-19.955zM256 144.5c-29 0-58.021 4.939-79.977 14.281-21.898 9.319-35.908 22.38-39.164 38.364L106.28 426.5h299.442l-30.58-229.355c-3.256-15.984-17.266-29.045-39.164-38.364C314.02 149.44 285 144.501 256 144.501zm-64 58c31.373 0 57 25.627 57 57s-25.627 57-57 57-57-25.627-57-57 25.627-57 57-57zm128 0c31.373 0 57 25.627 57 57s-25.627 57-57 57-57-25.627-57-57 25.627-57 57-57zm-128.549 16.023c-22.754 0-41.547 18.366-41.547 40.977 0 22.611 18.793 40.977 41.547 40.977 22.754 0 41.549-18.366 41.549-40.977 0-22.611-18.795-40.977-41.549-40.977zm128 0c-22.754 0-41.547 18.366-41.547 40.977 0 22.611 18.793 40.977 41.547 40.977 22.754 0 41.549-18.366 41.549-40.977 0-22.611-18.795-40.977-41.549-40.977zm-128 17.998c13.198 0 23.549 10.269 23.549 22.979 0 12.71-10.35 22.978-23.549 22.978-13.198 0-23.549-10.268-23.549-22.978s10.351-22.979 23.55-22.979zm128 0c13.198 0 23.549 10.269 23.549 22.979 0 12.71-10.35 22.978-23.549 22.978-13.198 0-23.549-10.268-23.549-22.978s10.351-22.979 23.55-22.979zM208 330.501h96v18h-96zm-16 32h128v18H192zm-16 32h160v18H176zm-103 50v46h46v-46zm64 0v46h46v-46zm64 0v46h46v-46zm64 0v46h46v-46zm64 0v46h46v-46zm64 0v46h46v-46z" fill="#f9ee78" fill-opacity="1" stroke="#000000" stroke-opacity="1" stroke-width="4" filter="url(#shadow-1)"></path></g></svg>