<svg width="1280" height="1276" xmlns="http://www.w3.org/2000/svg" preserveAspectRatio="xMidYMid meet" version="1.0">
 <metadata>Created by potrace 1.15, written by Peter Selinger 2001-2017</metadata>

 <g>
  <title>Layer 1</title>
  <path stroke="#000000" stroke-width="20" fill="#ffffff" id="svg_2" d="m598.2307,11.94086c-8.45213,0.58968 -14.1524,1.37593 -14.84036,2.16217c-0.58968,0.58968 -4.0295,10.90914 -7.5676,22.80109c-3.63638,11.89195 -10.51602,34.88959 -15.43005,51.10589c-4.91403,16.21629 -12.08851,39.9019 -15.92145,52.67837l-6.97792,23.29249l-18.47674,4.52091c-20.93376,5.11059 -46.68326,13.26787 -64.6686,20.44235c-6.68308,2.65357 -12.77647,4.61919 -13.46444,4.32434c-0.68796,-0.29484 -29.58245,-21.72 -64.1772,-47.66607c-34.69303,-26.04435 -63.39095,-47.27294 -63.78408,-47.27294c-1.27765,0 -25.2581,14.6438 -38.52598,23.58733c-19.45955,12.97303 -35.28272,24.96326 -56.80616,42.85032l-2.45701,2.06389l26.63403,73.31729c14.74208,40.39331 26.73231,73.90697 26.73231,74.49666c0,0.58968 -3.93122,5.50371 -8.64869,11.00742c-17.1991,19.85267 -33.12055,41.27783 -44.91421,60.44254c-3.14498,5.11059 -6.28996,9.43493 -7.0762,9.72977c-0.78624,0.29484 -35.97068,-0.39312 -78.23132,-1.57249c-42.26064,-1.17937 -78.03476,-2.06389 -79.41068,-2.06389c-2.26045,0 -2.94842,0.88452 -5.50371,6.5848c-5.99511,13.46444 -13.95584,34.69303 -19.85267,52.87494c-5.99511,18.28018 -14.25068,48.55059 -13.56272,49.33684c0.19656,0.19656 29.77901,20.04923 65.65141,44.02969c55.23367,37.05177 65.35657,44.22625 65.84797,46.4867c0.29484,1.47421 0.09828,7.0762 -0.39312,12.48163c-0.78624,9.72977 -0.19656,51.59729 1.08109,68.99295l0.68796,9.04181l-65.74969,44.02969c-36.06896,24.17702 -66.04453,44.22625 -66.53593,44.52109c-0.88452,0.58968 2.26045,14.44724 7.0762,31.44978c6.97792,24.47186 17.6905,54.44742 27.91168,78.03476l1.57249,3.83294l13.46444,-0.58968c7.37104,-0.39312 43.24344,-1.37593 79.60724,-2.35873l66.14281,-1.67077l2.45701,2.85014c1.27765,1.67077 6.68308,9.33665 11.79367,17.10082c11.1057,16.60941 21.81828,30.86009 34.39819,45.89702l9.14009,10.90914l-27.02715,73.90697c-14.84036,40.68815 -26.92887,74.39838 -26.73231,74.7915c0.4914,1.37593 20.93376,18.1819 35.47928,29.09104c22.11312,16.70769 59.55801,41.08127 62.01503,40.49159c0.68796,-0.19656 29.38588,-21.52344 63.78408,-47.37122l62.60471,-47.07638l4.61919,1.47421c2.65357,0.88452 8.25557,2.94842 12.57991,4.71747c17.98534,7.27276 38.52598,13.85756 60.83566,19.65611c7.96072,2.06389 14.6438,3.93122 14.84036,4.12778c0.29484,0.29484 21.81828,71.15512 37.93629,125.11114c3.73466,12.38335 7.17448,23.48905 7.66588,24.66842c0.78624,1.76905 2.35873,2.16217 13.46444,3.24326c30.86009,2.94842 105.94643,2.16217 109.09141,-1.17937c0.58968,-0.68796 4.0295,-10.90914 7.5676,-22.80109c3.63638,-11.89195 10.51602,-34.88959 15.43005,-51.10589c4.91403,-16.21629 12.08851,-39.9019 15.92145,-52.67837l6.97792,-23.29249l18.47674,-4.52091c20.93376,-5.11059 46.68326,-13.26787 64.6686,-20.44235c6.68308,-2.65357 12.77647,-4.61919 13.46444,-4.32434c0.68796,0.29484 29.58245,21.72 64.1772,47.66607c34.69303,26.04435 63.29267,47.27294 63.78408,47.27294c1.08109,0 24.57014,-14.25068 35.57756,-21.62172c20.24579,-13.46444 41.47439,-29.38588 59.75457,-44.81593l2.45701,-2.06389l-26.63403,-73.31729c-14.74208,-40.39331 -26.73231,-73.90697 -26.73231,-74.49666c0,-0.58968 3.93122,-5.50371 8.64869,-11.00742c17.1991,-19.85267 33.12055,-41.27783 44.91421,-60.44254c3.14498,-5.11059 6.28996,-9.43493 7.0762,-9.72977c0.78624,-0.29484 35.97068,0.39312 78.23132,1.57249c42.26064,1.17937 78.03476,2.06389 79.41068,2.06389c2.26045,0 2.94842,-0.88452 5.50371,-6.68308c5.99511,-13.36615 13.95584,-34.59475 19.85267,-52.77665c5.99511,-18.28018 14.25068,-48.55059 13.56272,-49.33684c-0.19656,-0.19656 -29.77901,-20.04923 -65.65141,-44.02969c-55.23367,-37.05177 -65.35657,-44.22625 -65.84797,-46.4867c-0.29484,-1.47421 -0.09828,-7.0762 0.39312,-12.48163c0.78624,-9.72977 0.19656,-51.79385 -1.08109,-68.99295l-0.68796,-9.04181l65.65141,-44.02969c36.16724,-24.17702 66.14281,-44.22625 66.63421,-44.52109c0.88452,-0.58968 -2.16217,-14.34896 -7.0762,-31.44978c-6.97792,-24.47186 -17.6905,-54.44742 -27.91168,-78.03476l-1.67077,-3.83294l-13.85756,0.58968c-7.66588,0.39312 -43.53828,1.37593 -79.60724,2.35873l-65.65141,1.67077l-2.45701,-2.85014c-1.27765,-1.67077 -6.68308,-9.33665 -11.79367,-17.10082c-11.1057,-16.60941 -21.81828,-30.86009 -34.39819,-45.89702l-9.14009,-10.90914l27.02715,-73.90697c14.84036,-40.68815 26.92887,-74.39838 26.73231,-74.7915c-0.4914,-1.37593 -20.93376,-18.1819 -35.47928,-29.09104c-22.11312,-16.70769 -59.55801,-41.08127 -62.01503,-40.49159c-0.68796,0.19656 -29.38588,21.52344 -63.78408,47.37122l-62.60471,47.07638l-4.61919,-1.47421c-2.65357,-0.88452 -8.25557,-2.94842 -12.57991,-4.71747c-17.98534,-7.27276 -38.52598,-13.85756 -60.83566,-19.65611c-7.96072,-2.06389 -14.6438,-3.93122 -14.84036,-4.12778c-0.29484,-0.29484 -21.81828,-71.15512 -37.93629,-125.11114c-3.73466,-12.48163 -7.17448,-23.48905 -7.66588,-24.66842c-0.78624,-1.76905 -2.35873,-2.16217 -13.46444,-3.24326c-16.11801,-1.57249 -76.16743,-2.16217 -94.25105,-0.98281z"/>
 </g>
</svg>