<svg width="1280" height="1276" xmlns="http://www.w3.org/2000/svg" preserveAspectRatio="xMidYMid meet" version="1.0">
 <metadata>Created by potrace 1.15, written by Peter Selinger 2001-2017</metadata>

 <g>
  <title>Layer 1</title>
  <path transform="rotate(-24 640.063 638.099)" stroke="#000000" stroke-width="20" fill="#ffffff" id="svg_2" d="m599.12713,24.53197c-8.28347,0.57792 -13.87,1.34847 -14.54424,2.11903c-0.57792,0.57792 -3.9491,10.69146 -7.4166,22.34611c-3.56382,11.65465 -10.30618,34.19341 -15.12215,50.08612c-4.81597,15.89271 -11.84729,39.1057 -15.60375,51.62723l-6.83868,22.82771l-18.10806,4.43069c-20.51604,5.00861 -45.75174,13.00313 -63.3782,20.03445c-6.54972,2.60063 -12.52153,4.52701 -13.19577,4.23806c-0.67424,-0.28896 -28.99216,-21.2866 -62.8966,-46.71494c-34.00077,-25.52466 -62.12605,-46.32966 -62.51133,-46.32966c-1.25215,0 -24.7541,14.3516 -37.75723,23.11667c-19.07125,12.71417 -34.57868,24.46514 -55.67265,41.99528l-2.40799,2.02271l26.10257,71.85431c14.44792,39.5873 26.19889,72.43223 26.19889,73.01015c0,0.57792 -3.85278,5.39389 -8.47611,10.78778c-16.8559,19.45653 -32.45966,40.45417 -44.01799,59.23647c-3.08222,5.00861 -6.16445,9.24667 -6.935,9.53563c-0.77056,0.28896 -35.25292,-0.38528 -76.67029,-1.54111c-41.41737,-1.15583 -76.47765,-2.02271 -77.82612,-2.02271c-2.21535,0 -2.88958,0.86688 -5.39389,6.4534c-5.87549,13.19577 -13.67736,34.00077 -19.45653,51.81987c-5.87549,17.91542 -13.96632,47.58181 -13.29208,48.35237c0.19264,0.19264 29.1848,19.64917 64.3414,43.15112c54.13153,36.31243 64.05244,43.34376 64.53404,45.5591c0.28896,1.44479 0.09632,6.935 -0.38528,12.23257c-0.77056,9.53563 -0.19264,50.56771 1.05951,67.61626l0.67424,8.86139l-64.43772,43.15112c-35.34924,23.69459 -64.72667,43.34376 -65.20827,43.63271c-0.86688,0.57792 2.21535,14.15896 6.935,30.82223c6.83868,23.98354 17.3375,53.36098 27.35473,76.47765l1.54111,3.75646l13.19577,-0.57792c7.22396,-0.38528 42.38056,-1.34847 78.01876,-2.31167l64.82299,-1.63743l2.40799,2.79326c1.25215,1.63743 6.54972,9.15035 11.55833,16.75959c10.8841,16.27799 21.38292,30.24431 33.71181,44.98119l8.95771,10.69146l-26.48785,72.43223c-14.54424,39.87625 -26.39153,72.91383 -26.19889,73.29911c0.4816,1.34847 20.51604,17.8191 34.77132,28.51056c21.67188,16.37431 58.36959,40.26153 60.77758,39.68362c0.67424,-0.19264 28.79952,-21.09396 62.51133,-46.42598l61.35549,-46.13702l4.52701,1.44479c2.60063,0.86688 8.09083,2.88958 12.32889,4.62333c17.62646,7.12764 37.75723,13.58104 59.62174,19.26389c7.80188,2.02271 14.3516,3.85278 14.54424,4.04542c0.28896,0.28896 21.38292,69.73529 37.17931,122.61467c3.66014,12.13625 7.03132,23.02035 7.51292,24.17618c0.77056,1.73375 2.31167,2.11903 13.19577,3.17854c30.24431,2.88958 103.83237,2.11903 106.9146,-1.15583c0.57792,-0.67424 3.9491,-10.69146 7.4166,-22.34611c3.56382,-11.65465 10.30618,-34.19341 15.12215,-50.08612c4.81597,-15.89271 11.84729,-39.1057 15.60375,-51.62723l6.83868,-22.82771l18.10806,-4.43069c20.51604,-5.00861 45.75174,-13.00313 63.3782,-20.03445c6.54972,-2.60063 12.52153,-4.52701 13.19577,-4.23806c0.67424,0.28896 28.99216,21.2866 62.8966,46.71494c34.00077,25.52466 62.02973,46.32966 62.51133,46.32966c1.05951,0 24.07986,-13.96632 34.86764,-21.19028c19.84181,-13.19577 40.64681,-28.79952 58.56223,-43.92167l2.40799,-2.02271l-26.10257,-71.85431c-14.44792,-39.5873 -26.19889,-72.43223 -26.19889,-73.01015c0,-0.57792 3.85278,-5.39389 8.47611,-10.78778c16.8559,-19.45653 32.45966,-40.45417 44.01799,-59.23647c3.08222,-5.00861 6.16445,-9.24667 6.935,-9.53563c0.77056,-0.28896 35.25292,0.38528 76.67029,1.54111c41.41737,1.15583 76.47765,2.02271 77.82612,2.02271c2.21535,0 2.88958,-0.86688 5.39389,-6.54972c5.87549,-13.09945 13.67736,-33.90445 19.45653,-51.72355c5.87549,-17.91542 13.96632,-47.58181 13.29208,-48.35237c-0.19264,-0.19264 -29.1848,-19.64917 -64.3414,-43.15112c-54.13153,-36.31243 -64.05244,-43.34376 -64.53404,-45.5591c-0.28896,-1.44479 -0.09632,-6.935 0.38528,-12.23257c0.77056,-9.53563 0.19264,-50.76035 -1.05951,-67.61626l-0.67424,-8.86139l64.3414,-43.15112c35.44556,-23.69459 64.82299,-43.34376 65.30459,-43.63271c0.86688,-0.57792 -2.11903,-14.06264 -6.935,-30.82223c-6.83868,-23.98354 -17.3375,-53.36098 -27.35473,-76.47765l-1.63743,-3.75646l-13.58104,0.57792c-7.51292,0.38528 -42.66952,1.34847 -78.01876,2.31167l-64.3414,1.63743l-2.40799,-2.79326c-1.25215,-1.63743 -6.54972,-9.15035 -11.55833,-16.75959c-10.8841,-16.27799 -21.38292,-30.24431 -33.71181,-44.98119l-8.95771,-10.69146l26.48785,-72.43223c14.54424,-39.87625 26.39153,-72.91383 26.19889,-73.29911c-0.4816,-1.34847 -20.51604,-17.8191 -34.77132,-28.51056c-21.67188,-16.37431 -58.36959,-40.26153 -60.77758,-39.68362c-0.67424,0.19264 -28.79952,21.09396 -62.51133,46.42598l-61.35549,46.13702l-4.52701,-1.44479c-2.60063,-0.86688 -8.09083,-2.88958 -12.32889,-4.62333c-17.62646,-7.12764 -37.75723,-13.58104 -59.62174,-19.26389c-7.80188,-2.02271 -14.3516,-3.85278 -14.54424,-4.04542c-0.28896,-0.28896 -21.38292,-69.73529 -37.17931,-122.61467c-3.66014,-12.23257 -7.03132,-23.02035 -7.51292,-24.17618c-0.77056,-1.73375 -2.31167,-2.11903 -13.19577,-3.17854c-15.79639,-1.54111 -74.64758,-2.11903 -92.37036,-0.96319z"/>
 </g>
</svg>