<svg height="512" width="512" style="height: 512px; width: 512px;" xmlns="http://www.w3.org/2000/svg"
	viewBox="0 0 512 512">
	<defs>
		<filter id="shadow-1" height="300%" width="300%" x="-100%" y="-100%">
			<feFlood flood-color="rgba(0, 0, 0, 1)" result="flood"></feFlood>
			<feComposite in="flood" in2="SourceGraphic" operator="atop" result="composite"></feComposite>
			<feGaussianBlur in="composite" stdDeviation="4" result="blur"></feGaussianBlur>
			<feOffset dx="8" dy="8" result="offset"></feOffset>
			<feComposite in="SourceGraphic" in2="offset" operator="over"></feComposite>
		</filter>
	</defs>
	<rect fill="#3693d4" fill-opacity="1" height="512" width="512" rx="32" ry="32"></rect>
	<g class="" style="" transform="translate(0,0)">
		<path
			d="M266 51.727c-39.32 0-71 31.68-71 71 0 39.319 31.68 71.002 71 71.002s71-31.683 71-71.002c0-39.32-31.68-71-71-71zm-144 32c-30.483 0-55 24.517-55 55 0 30.482 24.517 55.002 55 55.002s55-24.52 55-55.002c0-30.483-24.517-55-55-55zm-23 128v110.002h238V211.727zm350 4.648l-94 40.285v20.133l94 40.285zm-386 2.352v32h18v-32zm113 121.002v17.998h13.012l-51.123 136.275h19.222l51.507-136.275.382 136.275h18l.382-136.275 51.507 136.275h19.222l-51.123-136.275H260v-17.998c-28.003-.003-55.997 0-84 0z"
			fill="#f9ee78" fill-opacity="1" stroke="#000000" stroke-opacity="1" stroke-width="4"
			filter="url(#shadow-1)"></path>
	</g>
</svg>
