<svg style="height: 512px; width: 512px;" xmlns="http://www.w3.org/2000/svg" viewBox="0 0 512 512"><defs><filter id="shadow-1" height="300%" width="300%" x="-100%" y="-100%"><feFlood flood-color="rgba(0, 0, 0, 1)" result="flood"></feFlood><feComposite in="flood" in2="SourceGraphic" operator="atop" result="composite"></feComposite><feGaussianBlur in="composite" stdDeviation="4" result="blur"></feGaussianBlur><feOffset dx="8" dy="8" result="offset"></feOffset><feComposite in="SourceGraphic" in2="offset" operator="over"></feComposite></filter></defs><rect fill="#3693d4" fill-opacity="1" height="512" width="512" rx="32" ry="32"></rect><g class="" style="" transform="translate(0,0)"><path d="M294.8 26.57L238 60.37l7.8 13.17L281 52.59 270.8 118l6.3 10.6L336 93.53l-7.8-13.17-37.3 22.14L301 37.12l-6.2-10.55zM147.1 60.55A224 224 0 0 0 32 256a224 224 0 0 0 224 224 224 224 0 0 0 214.9-161.2A208 208 0 0 1 320 384a208 208 0 0 1-208-208 208 208 0 0 1 35.1-115.45zm244.5 52.05l-6.9 16.5 44.1 18.4-68.3 35.9-5.5 13.2 73.7 30.8 6.9-16.5-46.7-19.5 68.3-35.9 5.5-13.2-71.1-29.7zm-115 64l-97.8 35 8.1 22.7 60.6-21.7-35.4 97.9 6.5 18.1L320 292.4l-8.1-22.7-64.2 23 35.4-97.9-6.5-18.2z" fill="#f9ee78" fill-opacity="1" stroke="#000000" stroke-opacity="1" stroke-width="4" filter="url(#shadow-1)"></path></g></svg>