<svg style="height: 512px; width: 512px;" xmlns="http://www.w3.org/2000/svg" viewBox="0 0 512 512"><defs><filter id="shadow-1" height="300%" width="300%" x="-100%" y="-100%"><feFlood flood-color="rgba(0, 0, 0, 1)" result="flood"></feFlood><feComposite in="flood" in2="SourceGraphic" operator="atop" result="composite"></feComposite><feGaussianBlur in="composite" stdDeviation="4" result="blur"></feGaussianBlur><feOffset dx="8" dy="8" result="offset"></feOffset><feComposite in="SourceGraphic" in2="offset" operator="over"></feComposite></filter></defs><rect fill="#3693d4" fill-opacity="1" height="512" width="512" rx="32" ry="32"></rect><g class="" style="" transform="translate(0,0)"><path d="M331.188 16.72c-40.712-.002-81.41 15.408-112.438 46.436-43.866 43.864-56.798 107-38.813 162.25L17.03 388.312v25.75l170.22-170.218c2.75 5.84 5.847 11.555 9.344 17.094L17.03 440.5v51.78H64l181.875-181.874c5.516 3.515 11.212 6.668 17.03 9.438L90.44 492.28h27.03l164.75-164.75c55.182 17.85 118.21 4.884 162-38.905 41.415-41.414 54.998-99.91 41.282-152.813L380.22 241.125l-90.033-23.938-23.968-90.03L371.53 21.843c-13.213-3.41-26.772-5.125-40.342-5.125z" fill="#f9ee78" fill-opacity="1" stroke="#000000" stroke-opacity="1" stroke-width="4" filter="url(#shadow-1)"></path></g></svg>