<svg width="1280" height="1280" xmlns="http://www.w3.org/2000/svg" preserveAspectRatio="xMidYMid meet" version="1.0">
 <metadata>Created by potrace 1.15, written by Peter Selinger 2001-2017</metadata>

 <g>
  <title>Layer 1</title>
  <path stroke="#000000" stroke-width="20" fill="#ffffff" id="svg_2" d="m602.59039,20.05522c-24.35444,1.45544 -60.25541,5.72475 -84.12471,10.09108c-4.56039,0.77624 -11.15841,1.94059 -14.84554,2.6198l-6.50099,1.16436l-1.94059,6.40396c-3.20198,10.77029 -11.25544,40.46136 -15.42771,56.66532c-2.23168,8.53861 -4.17228,15.52474 -4.2693,15.62177c-0.09703,0.09703 -6.30693,2.23168 -13.77821,4.75445c-20.37623,6.98613 -40.55839,15.33068 -60.74056,25.03365l-18.04752,8.73267l-16.39801,-9.70297c-22.41385,-13.29306 -52.6871,-30.27325 -53.94849,-30.27325c-1.45544,0 -23.48118,15.13663 -40.07325,27.65345c-55.01581,41.33463 -101.20193,88.39401 -141.85735,144.57418c-10.09108,14.0693 -19.69702,28.33266 -19.69702,29.49701c0,0.9703 18.92078,34.63959 31.7287,56.2772l8.24752,13.97227l-8.34455,17.07722c-9.21782,19.11484 -19.3089,43.56631 -25.80989,62.87521l-4.2693,12.80791l-3.97822,0.9703c-2.13465,0.58218 -14.55445,3.88119 -27.65345,7.37425c-13.099,3.39604 -29.01187,7.76237 -35.41582,9.50891l-11.64356,3.29901l-0.67921,3.78416c-11.4495,63.65145 -13.77821,87.52075 -13.77821,139.14052c0,46.28314 2.42574,74.32471 10.18811,118.37618c1.6495,9.31485 3.20198,18.62969 3.49307,20.57029c0.48515,3.5901 0.67921,3.68713 7.18019,5.62772c15.81583,4.56039 21.15246,6.11287 45.99205,12.61385c14.36039,3.78416 26.19801,6.98613 26.19801,7.08316c0.09703,0.09703 2.23168,6.30693 4.75445,13.77821c6.98613,20.37623 15.33068,40.55839 25.03365,60.83759l8.73267,18.04752l-6.2099,10.57623c-15.52474,26.00395 -33.76632,58.21779 -33.76632,59.67324c0,1.35842 14.84554,22.899 26.97424,39.10295c39.29701,52.49304 81.69897,94.99203 133.60983,133.99795c17.6594,13.29306 39.5881,28.52672 41.04354,28.52672c1.06733,0 34.15444,-18.62969 56.37423,-31.7287l13.97227,-8.24752l16.10692,7.76237c24.16038,11.74059 48.80591,21.73464 69.66729,28.42969c6.69505,2.13465 6.98613,2.32871 7.95643,6.11287c13.87524,52.49304 19.89108,74.13065 20.66732,74.71283c0.58218,0.48515 30.27325,5.62772 45.70097,7.8594c66.46531,9.60594 127.01181,9.60594 193.47713,0c15.52474,-2.23168 45.11879,-7.37425 45.798,-7.8594c0.58218,-0.48515 6.69505,-22.31682 14.16633,-50.74651c4.07525,-15.23366 7.47128,-27.75048 7.56831,-27.84751c0.09703,-0.09703 5.62772,-1.94059 12.12871,-4.17228c23.86929,-8.15049 39.5881,-14.55445 64.33066,-26.48909l16.10692,-7.76237l13.97227,8.24752c22.21979,13.099 55.3069,31.7287 56.37423,31.7287c1.45544,0 23.38415,-15.23366 40.94651,-28.42969c51.42572,-38.71483 93.53658,-80.8257 132.25142,-132.25142c13.19603,-17.56237 28.42969,-39.49107 28.42969,-40.94651c0,-1.16436 -12.71088,-23.96632 -26.97424,-48.22374c-5.62772,-9.60594 -10.86732,-18.53266 -11.64356,-19.89108c-1.35842,-2.32871 -1.06733,-3.10495 4.07525,-13.39009c10.86732,-21.63761 25.22771,-56.66532 31.24355,-76.16828c1.55247,-5.04554 2.03762,-5.62772 5.14257,-6.40396c42.49899,-10.86732 73.06333,-19.40593 74.51877,-20.86138c2.03762,-2.03762 9.50891,-48.32077 12.32277,-76.26531c6.50099,-64.71878 3.78416,-124.39201 -8.92673,-194.44742l-2.6198,-14.45742l-11.64356,-3.29901c-6.40396,-1.74653 -22.31682,-6.11287 -35.41582,-9.50891c-13.099,-3.49307 -25.5188,-6.79208 -27.65345,-7.37425l-3.97822,-0.9703l-4.2693,-12.80791c-6.50099,-19.3089 -16.59207,-43.76037 -25.80989,-62.87521l-8.34455,-17.07722l8.24752,-13.97227c13.099,-22.21979 31.7287,-55.3069 31.7287,-56.37423c0,-1.45544 -15.33068,-23.67524 -27.65345,-40.07325c-39.10295,-51.91086 -81.99006,-94.79797 -133.90092,-133.90092c-16.49504,-12.4198 -38.6178,-27.65345 -40.07325,-27.65345c-1.26139,0 -31.53464,16.98019 -53.94849,30.27325l-16.39801,9.70297l-18.04752,-8.73267c-20.18217,-9.70297 -40.36434,-18.04752 -60.74056,-25.03365c-7.47128,-2.52277 -13.68118,-4.65742 -13.77821,-4.75445c-0.09703,0 -3.10495,-10.96435 -6.59802,-24.25741c-9.60594,-36.58018 -14.16633,-52.29898 -15.33068,-53.46334c-2.42574,-2.32871 -45.40988,-9.31485 -76.36234,-12.51683c-32.31087,-3.29901 -72.57818,-4.17228 -103.14252,-2.32871z"/>
  <path id="svg_3" d="m710,509l22,94l-22,-94z"/>
 </g>
</svg>