<?xml version="1.0" encoding="UTF-8" standalone="no"?>
<!DOCTYPE svg PUBLIC "-//W3C//DTD SVG 1.1//EN" "http://www.w3.org/Graphics/SVG/1.1/DTD/svg11.dtd">
<svg width="100%" height="100%" viewBox="0 0 512 512" version="1.1"
	xmlns="http://www.w3.org/2000/svg" xmlns:xlink="http://www.w3.org/1999/xlink"
	xml:space="preserve" xmlns:serif="http://www.serif.com/"
	style="fill-rule:evenodd;clip-rule:evenodd;stroke-linejoin:round;stroke-miterlimit:2;">
    <rect x="0" y="0" width="512" height="512" style="fill:rgb(54,147,212);fill-rule:nonzero;"/>
    <g>
        <path d="M192,64C176.6,67.77 156.3,80.04 139,97.17C119.8,116.3 104.1,140.8 99.42,161.8L98.84,297.1L99.21,454.5L193.2,414.2L192,64ZM320,64L318.8,414.2L412.8,454.5L413.2,297.7L412.6,161.8C407.9,140.8 392.3,116.3 373,97.17C355.7,80.04 335.4,67.77 320,64ZM57.24,94.67C48.85,94.67 42.24,101.3 42.24,109.7C42.24,118.1 48.85,124.7 57.24,124.7C65.63,124.7 72.24,118.1 72.24,109.7C72.24,101.3 65.63,94.67 57.24,94.67ZM454.8,94.67C446.4,94.67 439.8,101.3 439.8,109.7C439.8,118.1 446.4,124.7 454.8,124.7C463.2,124.7 469.8,118.1 469.8,109.7C469.8,101.3 463.2,94.67 454.8,94.67ZM35.5,142.7L34.08,476.7L80.08,476.7L81.5,142.7L35.5,142.7ZM430.5,142.7L432,476.7L478,476.7L476.5,142.7L430.5,142.7ZM159.2,231L177.2,231L177.2,279L159.2,279L159.2,231ZM334.8,231L352.8,231L352.8,279L334.8,279L334.8,231Z" style="fill:rgb(232,217,64);fill-rule:nonzero;"/>
    </g>
</svg>
