<svg style="height: 512px; width: 512px;" xmlns="http://www.w3.org/2000/svg" viewBox="0 0 512 512"><defs><filter id="shadow-1" height="300%" width="300%" x="-100%" y="-100%"><feFlood flood-color="rgba(0, 0, 0, 1)" result="flood"></feFlood><feComposite in="flood" in2="SourceGraphic" operator="atop" result="composite"></feComposite><feGaussianBlur in="composite" stdDeviation="4" result="blur"></feGaussianBlur><feOffset dx="8" dy="8" result="offset"></feOffset><feComposite in="SourceGraphic" in2="offset" operator="over"></feComposite></filter></defs><rect fill="#3693d4" fill-opacity="1" height="512" width="512" rx="32" ry="32"></rect><g class="" style="" transform="translate(0,0)"><path d="M25.01 49v46H103V49zM153 49v46h78V49zm128 0v46h78V49zm128 0v46h78V49zM55.01 113v64H119v46h18v-46h64v-64h-18v46H73.01v-46zM311 113v64h64v46h18v-46h64v-64h-18v46H329v-46zM89.01 241v46H167v-46zM345 241v46h78v-46zm-226 64v48h128v46h18v-46h128v-48h-18v30H137v-30zm98 112v46h78v-46z" fill="#f9ee78" fill-opacity="1" stroke="#000000" stroke-opacity="1" stroke-width="4" filter="url(#shadow-1)"></path></g></svg>