<?xml version="1.0" encoding="UTF-8" standalone="no"?>
<svg
   height="512"
   width="512"
   style="height: 512px; width: 512px;"
   viewBox="0 0 512 512"
   version="1.1"
   id="svg21"
   sodipodi:docname="weapon_Knuckles.svg"
   xml:space="preserve"
   inkscape:version="1.2.2 (b0a8486541, 2022-12-01)"
   xmlns:inkscape="http://www.inkscape.org/namespaces/inkscape"
   xmlns:sodipodi="http://sodipodi.sourceforge.net/DTD/sodipodi-0.dtd"
   xmlns="http://www.w3.org/2000/svg"
   xmlns:svg="http://www.w3.org/2000/svg"><sodipodi:namedview
     id="namedview23"
     pagecolor="#ffffff"
     bordercolor="#000000"
     borderopacity="0.25"
     inkscape:showpageshadow="2"
     inkscape:pageopacity="0.0"
     inkscape:pagecheckerboard="0"
     inkscape:deskcolor="#d1d1d1"
     showgrid="false"
     inkscape:zoom="3.1824535"
     inkscape:cx="244.93681"
     inkscape:cy="205.34472"
     inkscape:window-width="3840"
     inkscape:window-height="2068"
     inkscape:window-x="3840"
     inkscape:window-y="2160"
     inkscape:window-maximized="1"
     inkscape:current-layer="svg21" /><defs
     id="defs13"><filter
       id="shadow-1"
       height="1.0779319"
       width="1.0728615"
       x="-0.029955623"
       y="-0.027447505"><feFlood
         flood-color="rgba(0, 0, 0, 1)"
         result="flood"
         id="feFlood2" /><feComposite
         in="flood"
         in2="SourceGraphic"
         operator="atop"
         result="composite"
         id="feComposite4" /><feGaussianBlur
         in="composite"
         stdDeviation="4"
         result="blur"
         id="feGaussianBlur6" /><feOffset
         dx="8"
         dy="8"
         result="offset"
         id="feOffset8" /><feComposite
         in="SourceGraphic"
         in2="offset"
         operator="over"
         id="feComposite10" /></filter><filter
       style="color-interpolation-filters:sRGB;"
       inkscape:label="Drop Shadow"
       id="filter5121"
       x="-0.052863002"
       y="-0.054307292"
       width="1.1460451"
       height="1.150035"><feFlood
         flood-opacity="0.498039"
         flood-color="rgb(0,0,0)"
         result="flood"
         id="feFlood5111" /><feComposite
         in="flood"
         in2="SourceGraphic"
         operator="in"
         result="composite1"
         id="feComposite5113" /><feGaussianBlur
         in="composite1"
         stdDeviation="3"
         result="blur"
         id="feGaussianBlur5115" /><feOffset
         dx="6"
         dy="6"
         result="offset"
         id="feOffset5117" /><feComposite
         in="SourceGraphic"
         in2="offset"
         operator="over"
         result="fbSourceGraphic"
         id="feComposite5119" /><feColorMatrix
         result="fbSourceGraphicAlpha"
         in="fbSourceGraphic"
         values="0 0 0 -1 0 0 0 0 -1 0 0 0 0 -1 0 0 0 0 1 0"
         id="feColorMatrix5123" /><feFlood
         id="feFlood5125"
         flood-opacity="0.498039"
         flood-color="rgb(0,0,0)"
         result="flood"
         in="fbSourceGraphic" /><feComposite
         in2="fbSourceGraphic"
         id="feComposite5127"
         in="flood"
         operator="in"
         result="composite1" /><feGaussianBlur
         id="feGaussianBlur5129"
         in="composite1"
         stdDeviation="3"
         result="blur" /><feOffset
         id="feOffset5131"
         dx="6"
         dy="6"
         result="offset" /><feComposite
         in2="offset"
         id="feComposite5133"
         in="fbSourceGraphic"
         operator="over"
         result="fbSourceGraphic" /><feColorMatrix
         result="fbSourceGraphicAlpha"
         in="fbSourceGraphic"
         values="0 0 0 -1 0 0 0 0 -1 0 0 0 0 -1 0 0 0 0 1 0"
         id="feColorMatrix5135" /><feFlood
         id="feFlood5137"
         flood-opacity="0.498039"
         flood-color="rgb(0,0,0)"
         result="flood"
         in="fbSourceGraphic" /><feComposite
         in2="fbSourceGraphic"
         id="feComposite5139"
         in="flood"
         operator="in"
         result="composite1" /><feGaussianBlur
         id="feGaussianBlur5141"
         in="composite1"
         stdDeviation="3"
         result="blur" /><feOffset
         id="feOffset5143"
         dx="6"
         dy="6"
         result="offset" /><feComposite
         in2="offset"
         id="feComposite5145"
         in="fbSourceGraphic"
         operator="over"
         result="composite2" /></filter><filter
       style="color-interpolation-filters:sRGB;"
       inkscape:label="Drop Shadow"
       id="filter8948"
       x="-0.043541874"
       y="-0.04144837"
       width="1.115282"
       height="1.1153047"><feFlood
         flood-opacity="0.498039"
         flood-color="rgb(0,0,0)"
         result="flood"
         id="feFlood8938" /><feComposite
         in="flood"
         in2="SourceGraphic"
         operator="in"
         result="composite1"
         id="feComposite8940" /><feGaussianBlur
         in="composite1"
         stdDeviation="3"
         result="blur"
         id="feGaussianBlur8942" /><feOffset
         dx="6"
         dy="6"
         result="offset"
         id="feOffset8944" /><feComposite
         in="SourceGraphic"
         in2="offset"
         operator="over"
         result="fbSourceGraphic"
         id="feComposite8946" /><feColorMatrix
         result="fbSourceGraphicAlpha"
         in="fbSourceGraphic"
         values="0 0 0 -1 0 0 0 0 -1 0 0 0 0 -1 0 0 0 0 1 0"
         id="feColorMatrix8950" /><feFlood
         id="feFlood8952"
         flood-opacity="0.498039"
         flood-color="rgb(0,0,0)"
         result="flood"
         in="fbSourceGraphic" /><feComposite
         in2="fbSourceGraphic"
         id="feComposite8954"
         in="flood"
         operator="in"
         result="composite1" /><feGaussianBlur
         id="feGaussianBlur8956"
         in="composite1"
         stdDeviation="3"
         result="blur" /><feOffset
         id="feOffset8958"
         dx="6"
         dy="6"
         result="offset" /><feComposite
         in2="offset"
         id="feComposite8960"
         in="fbSourceGraphic"
         operator="over"
         result="composite2" /></filter><filter
       style="color-interpolation-filters:sRGB;"
       inkscape:label="Drop Shadow"
       id="filter9878"
       x="-0.037453126"
       y="-0.03953386"
       width="1.0996773"
       height="1.1032074"><feFlood
         flood-opacity="0.498039"
         flood-color="rgb(0,0,0)"
         result="flood"
         id="feFlood9868" /><feComposite
         in="flood"
         in2="SourceGraphic"
         operator="in"
         result="composite1"
         id="feComposite9870" /><feGaussianBlur
         in="composite1"
         stdDeviation="3"
         result="blur"
         id="feGaussianBlur9872" /><feOffset
         dx="6"
         dy="6"
         result="offset"
         id="feOffset9874" /><feComposite
         in="SourceGraphic"
         in2="offset"
         operator="over"
         result="fbSourceGraphic"
         id="feComposite9876" /><feColorMatrix
         result="fbSourceGraphicAlpha"
         in="fbSourceGraphic"
         values="0 0 0 -1 0 0 0 0 -1 0 0 0 0 -1 0 0 0 0 1 0"
         id="feColorMatrix9880" /><feFlood
         id="feFlood9882"
         flood-opacity="0.498039"
         flood-color="rgb(0,0,0)"
         result="flood"
         in="fbSourceGraphic" /><feComposite
         in2="fbSourceGraphic"
         id="feComposite9884"
         in="flood"
         operator="in"
         result="composite1" /><feGaussianBlur
         id="feGaussianBlur9886"
         in="composite1"
         stdDeviation="3"
         result="blur" /><feOffset
         id="feOffset9888"
         dx="6"
         dy="6"
         result="offset" /><feComposite
         in2="offset"
         id="feComposite9890"
         in="fbSourceGraphic"
         operator="over"
         result="composite2" /></filter><filter
       style="color-interpolation-filters:sRGB;"
       inkscape:label="Drop Shadow"
       id="filter10820"
       x="-0.035726371"
       y="-0.035725982"
       width="1.0976214"
       height="1.0976204"><feFlood
         flood-opacity="0.498039"
         flood-color="rgb(0,0,0)"
         result="flood"
         id="feFlood10810" /><feComposite
         in="flood"
         in2="SourceGraphic"
         operator="in"
         result="composite1"
         id="feComposite10812" /><feGaussianBlur
         in="composite1"
         stdDeviation="3"
         result="blur"
         id="feGaussianBlur10814" /><feOffset
         dx="6"
         dy="6"
         result="offset"
         id="feOffset10816" /><feComposite
         in="SourceGraphic"
         in2="offset"
         operator="over"
         result="fbSourceGraphic"
         id="feComposite10818" /><feColorMatrix
         result="fbSourceGraphicAlpha"
         in="fbSourceGraphic"
         values="0 0 0 -1 0 0 0 0 -1 0 0 0 0 -1 0 0 0 0 1 0"
         id="feColorMatrix10822" /><feFlood
         id="feFlood10824"
         flood-opacity="0.498039"
         flood-color="rgb(0,0,0)"
         result="flood"
         in="fbSourceGraphic" /><feComposite
         in2="fbSourceGraphic"
         id="feComposite10826"
         in="flood"
         operator="in"
         result="composite1" /><feGaussianBlur
         id="feGaussianBlur10828"
         in="composite1"
         stdDeviation="3"
         result="blur" /><feOffset
         id="feOffset10830"
         dx="6"
         dy="6"
         result="offset" /><feComposite
         in2="offset"
         id="feComposite10832"
         in="fbSourceGraphic"
         operator="over"
         result="composite2" /></filter></defs><rect
     fill="#3693d4"
     fill-opacity="1"
     height="512"
     width="512"
     rx="32"
     ry="32"
     id="rect15"
     x="0"
     y="0"
     style="display:inline"
     inkscape:label="Background" /><path
     d="m 88.37422,188.69672 c -31.81,31.8 -31.96,83.6 -0.24,115.3 0.28,0.3 0.58,0.5 0.86,0.8 -14.1,3.4 -27.48,10.5 -38.46,21.5 -31.81,31.8 -31.96,83.7 -0.23,115.4 31.72,31.7 83.59,31.6 115.39,-0.3 12.8,-12.8 20.5,-29 23,-45.7 6.4,8.1 9.7,15 11.3,20.9 2.1,8.1 1.2,14.5 -0.9,20.8 -2.1,6.3 -5.5,12 -8.4,18.4 -1.4,3.2 -2.7,6.6 -2.9,11.2 -0.2,4.5 1.8,10.2 5.4,13.8 5.5,5.5 13.3,5.2 18.7,3.6 5.4,-1.5 10.6,-4.3 16.2,-7.9 11.4,-7.2 24.8,-18 39.5,-31 29.3,-25.9 63.4,-60 90.7,-87.2 27.2,-27.3 61.3,-61.4 87.2,-90.7 13,-14.7 23.8,-28.1 31,-39.5 3.6,-5.7 6.4,-10.8 7.9,-16.2 1.6,-5.4 1.9,-13.2 -3.6,-18.7 -3.6,-3.6 -9.3,-5.6 -13.8,-5.4 -4.6,0.2 -8,1.5 -11.2,2.9 -6.4,2.8 -12.1,6.3 -18.4,8.4 -6.3,2.1 -12.7,3 -20.8,0.9 -5.9,-1.6 -12.8,-4.9 -20.9,-11.3 16.7,-2.5 32.9,-10.2 45.7,-23 31.9,-31.8 32,-83.670002 0.3,-115.400002 -31.7,-31.72 -83.6,-31.58 -115.4,0.24 -11,10.98 -18.1,24.36 -21.5,38.46 -0.3,-0.28 -0.5,-0.58 -0.8,-0.86 -31.7,-31.72 -83.5,-31.57 -115.3,0.24 -21.5,21.420002 -28.5,51.920002 -21.1,79.220002 -27.3,-7.4 -57.8,-0.4 -79.22,21.1 z m 15.32,15.3 c 23.6,-23.6 61.3,-23.7 84.7,-0.3 23.4,23.4 23.4,61.2 -0.2,84.8 -23.6,23.6 -61.3,23.6 -84.7,0.2 -23.45,-23.4 -23.38,-61.2 0.2,-84.7 z m 100.3,-100.3 c 23.5,-23.580002 61.3,-23.650002 84.7,-0.2 23.4,23.4 23.3,61.1 -0.2,84.7 -23.6,23.6 -61.4,23.6 -84.8,0.2 -23.4,-23.4 -23.3,-61.1 0.3,-84.7 z m -138.15,237.9 c 23.58,-23.5 61.35,-23.6 84.75,-0.2 23.4,23.4 23.3,61.2 -0.2,84.7 -23.6,23.6 -61.37,23.7 -84.78,0.3 -23.41,-23.4 -23.34,-61.2 0.23,-84.8 z m 275.75,-275.750002 c 23.6,-23.57 61.4,-23.64 84.8,-0.23 23.4,23.41 23.3,61.180002 -0.3,84.780002 -23.5,23.5 -61.3,23.6 -84.7,0.2 -23.5,-27.8 -17.5,-65.890002 0.2,-84.750002 z m -117,158.750002 c 27.3,7.3 57.8,0.3 79.2,-21.1 4.9,-4.9 9,-10.3 12.4,-16 33.2,12.8 52.9,30.1 57.9,50 5.5,21.9 -5.2,52.3 -44.8,91.8 -39.5,39.6 -69.9,50.3 -91.8,44.8 -19.9,-5 -37.3,-24.7 -50,-57.9 5.7,-3.4 11.1,-7.5 16,-12.4 21.4,-21.4 28.4,-51.9 21.1,-79.2 z"
     fill="#ffffff"
     fill-opacity="1"
     id="path10366"
     style="fill:#f8ed76;fill-opacity:1;stroke:#000000;stroke-opacity:1;stroke-width:4;stroke-dasharray:none;filter:url(#filter10820)"
     inkscape:label="Knuckles" /></svg>
