<?xml version="1.0" encoding="UTF-8" standalone="no"?>
<svg
   height="512"
   width="512"
   style="height: 512px; width: 512px;"
   viewBox="0 0 512 512"
   version="1.1"
   id="svg21"
   sodipodi:docname="weapon_flamer.svg"
   xml:space="preserve"
   inkscape:version="1.2.2 (b0a8486541, 2022-12-01)"
   xmlns:inkscape="http://www.inkscape.org/namespaces/inkscape"
   xmlns:sodipodi="http://sodipodi.sourceforge.net/DTD/sodipodi-0.dtd"
   xmlns="http://www.w3.org/2000/svg"
   xmlns:svg="http://www.w3.org/2000/svg"><sodipodi:namedview
     id="namedview23"
     pagecolor="#ffffff"
     bordercolor="#000000"
     borderopacity="0.25"
     inkscape:showpageshadow="2"
     inkscape:pageopacity="0.0"
     inkscape:pagecheckerboard="0"
     inkscape:deskcolor="#d1d1d1"
     showgrid="false"
     inkscape:zoom="3.1824535"
     inkscape:cx="244.93681"
     inkscape:cy="205.34472"
     inkscape:window-width="3840"
     inkscape:window-height="2068"
     inkscape:window-x="3840"
     inkscape:window-y="2160"
     inkscape:window-maximized="1"
     inkscape:current-layer="svg21" /><defs
     id="defs13"><filter
       id="shadow-1"
       height="1.0779319"
       width="1.0728615"
       x="-0.029955623"
       y="-0.027447505"><feFlood
         flood-color="rgba(0, 0, 0, 1)"
         result="flood"
         id="feFlood2" /><feComposite
         in="flood"
         in2="SourceGraphic"
         operator="atop"
         result="composite"
         id="feComposite4" /><feGaussianBlur
         in="composite"
         stdDeviation="4"
         result="blur"
         id="feGaussianBlur6" /><feOffset
         dx="8"
         dy="8"
         result="offset"
         id="feOffset8" /><feComposite
         in="SourceGraphic"
         in2="offset"
         operator="over"
         id="feComposite10" /></filter><filter
       style="color-interpolation-filters:sRGB;"
       inkscape:label="Drop Shadow"
       id="filter5121"
       x="-0.052863002"
       y="-0.054307292"
       width="1.1460451"
       height="1.150035"><feFlood
         flood-opacity="0.498039"
         flood-color="rgb(0,0,0)"
         result="flood"
         id="feFlood5111" /><feComposite
         in="flood"
         in2="SourceGraphic"
         operator="in"
         result="composite1"
         id="feComposite5113" /><feGaussianBlur
         in="composite1"
         stdDeviation="3"
         result="blur"
         id="feGaussianBlur5115" /><feOffset
         dx="6"
         dy="6"
         result="offset"
         id="feOffset5117" /><feComposite
         in="SourceGraphic"
         in2="offset"
         operator="over"
         result="fbSourceGraphic"
         id="feComposite5119" /><feColorMatrix
         result="fbSourceGraphicAlpha"
         in="fbSourceGraphic"
         values="0 0 0 -1 0 0 0 0 -1 0 0 0 0 -1 0 0 0 0 1 0"
         id="feColorMatrix5123" /><feFlood
         id="feFlood5125"
         flood-opacity="0.498039"
         flood-color="rgb(0,0,0)"
         result="flood"
         in="fbSourceGraphic" /><feComposite
         in2="fbSourceGraphic"
         id="feComposite5127"
         in="flood"
         operator="in"
         result="composite1" /><feGaussianBlur
         id="feGaussianBlur5129"
         in="composite1"
         stdDeviation="3"
         result="blur" /><feOffset
         id="feOffset5131"
         dx="6"
         dy="6"
         result="offset" /><feComposite
         in2="offset"
         id="feComposite5133"
         in="fbSourceGraphic"
         operator="over"
         result="fbSourceGraphic" /><feColorMatrix
         result="fbSourceGraphicAlpha"
         in="fbSourceGraphic"
         values="0 0 0 -1 0 0 0 0 -1 0 0 0 0 -1 0 0 0 0 1 0"
         id="feColorMatrix5135" /><feFlood
         id="feFlood5137"
         flood-opacity="0.498039"
         flood-color="rgb(0,0,0)"
         result="flood"
         in="fbSourceGraphic" /><feComposite
         in2="fbSourceGraphic"
         id="feComposite5139"
         in="flood"
         operator="in"
         result="composite1" /><feGaussianBlur
         id="feGaussianBlur5141"
         in="composite1"
         stdDeviation="3"
         result="blur" /><feOffset
         id="feOffset5143"
         dx="6"
         dy="6"
         result="offset" /><feComposite
         in2="offset"
         id="feComposite5145"
         in="fbSourceGraphic"
         operator="over"
         result="composite2" /></filter><filter
       style="color-interpolation-filters:sRGB;"
       inkscape:label="Drop Shadow"
       id="filter8948"
       x="-0.043541874"
       y="-0.04144837"
       width="1.115282"
       height="1.1153047"><feFlood
         flood-opacity="0.498039"
         flood-color="rgb(0,0,0)"
         result="flood"
         id="feFlood8938" /><feComposite
         in="flood"
         in2="SourceGraphic"
         operator="in"
         result="composite1"
         id="feComposite8940" /><feGaussianBlur
         in="composite1"
         stdDeviation="3"
         result="blur"
         id="feGaussianBlur8942" /><feOffset
         dx="6"
         dy="6"
         result="offset"
         id="feOffset8944" /><feComposite
         in="SourceGraphic"
         in2="offset"
         operator="over"
         result="fbSourceGraphic"
         id="feComposite8946" /><feColorMatrix
         result="fbSourceGraphicAlpha"
         in="fbSourceGraphic"
         values="0 0 0 -1 0 0 0 0 -1 0 0 0 0 -1 0 0 0 0 1 0"
         id="feColorMatrix8950" /><feFlood
         id="feFlood8952"
         flood-opacity="0.498039"
         flood-color="rgb(0,0,0)"
         result="flood"
         in="fbSourceGraphic" /><feComposite
         in2="fbSourceGraphic"
         id="feComposite8954"
         in="flood"
         operator="in"
         result="composite1" /><feGaussianBlur
         id="feGaussianBlur8956"
         in="composite1"
         stdDeviation="3"
         result="blur" /><feOffset
         id="feOffset8958"
         dx="6"
         dy="6"
         result="offset" /><feComposite
         in2="offset"
         id="feComposite8960"
         in="fbSourceGraphic"
         operator="over"
         result="composite2" /></filter><filter
       style="color-interpolation-filters:sRGB;"
       inkscape:label="Drop Shadow"
       id="filter9878"
       x="-0.037453126"
       y="-0.03953386"
       width="1.0996773"
       height="1.1032074"><feFlood
         flood-opacity="0.498039"
         flood-color="rgb(0,0,0)"
         result="flood"
         id="feFlood9868" /><feComposite
         in="flood"
         in2="SourceGraphic"
         operator="in"
         result="composite1"
         id="feComposite9870" /><feGaussianBlur
         in="composite1"
         stdDeviation="3"
         result="blur"
         id="feGaussianBlur9872" /><feOffset
         dx="6"
         dy="6"
         result="offset"
         id="feOffset9874" /><feComposite
         in="SourceGraphic"
         in2="offset"
         operator="over"
         result="fbSourceGraphic"
         id="feComposite9876" /><feColorMatrix
         result="fbSourceGraphicAlpha"
         in="fbSourceGraphic"
         values="0 0 0 -1 0 0 0 0 -1 0 0 0 0 -1 0 0 0 0 1 0"
         id="feColorMatrix9880" /><feFlood
         id="feFlood9882"
         flood-opacity="0.498039"
         flood-color="rgb(0,0,0)"
         result="flood"
         in="fbSourceGraphic" /><feComposite
         in2="fbSourceGraphic"
         id="feComposite9884"
         in="flood"
         operator="in"
         result="composite1" /><feGaussianBlur
         id="feGaussianBlur9886"
         in="composite1"
         stdDeviation="3"
         result="blur" /><feOffset
         id="feOffset9888"
         dx="6"
         dy="6"
         result="offset" /><feComposite
         in2="offset"
         id="feComposite9890"
         in="fbSourceGraphic"
         operator="over"
         result="composite2" /></filter><filter
       style="color-interpolation-filters:sRGB;"
       inkscape:label="Drop Shadow"
       id="filter10820"
       x="-0.035726371"
       y="-0.035725982"
       width="1.0976214"
       height="1.0976204"><feFlood
         flood-opacity="0.498039"
         flood-color="rgb(0,0,0)"
         result="flood"
         id="feFlood10810" /><feComposite
         in="flood"
         in2="SourceGraphic"
         operator="in"
         result="composite1"
         id="feComposite10812" /><feGaussianBlur
         in="composite1"
         stdDeviation="3"
         result="blur"
         id="feGaussianBlur10814" /><feOffset
         dx="6"
         dy="6"
         result="offset"
         id="feOffset10816" /><feComposite
         in="SourceGraphic"
         in2="offset"
         operator="over"
         result="fbSourceGraphic"
         id="feComposite10818" /><feColorMatrix
         result="fbSourceGraphicAlpha"
         in="fbSourceGraphic"
         values="0 0 0 -1 0 0 0 0 -1 0 0 0 0 -1 0 0 0 0 1 0"
         id="feColorMatrix10822" /><feFlood
         id="feFlood10824"
         flood-opacity="0.498039"
         flood-color="rgb(0,0,0)"
         result="flood"
         in="fbSourceGraphic" /><feComposite
         in2="fbSourceGraphic"
         id="feComposite10826"
         in="flood"
         operator="in"
         result="composite1" /><feGaussianBlur
         id="feGaussianBlur10828"
         in="composite1"
         stdDeviation="3"
         result="blur" /><feOffset
         id="feOffset10830"
         dx="6"
         dy="6"
         result="offset" /><feComposite
         in2="offset"
         id="feComposite10832"
         in="fbSourceGraphic"
         operator="over"
         result="composite2" /></filter><filter
       style="color-interpolation-filters:sRGB;"
       inkscape:label="Drop Shadow"
       id="filter11705"
       x="-0.034572064"
       y="-0.031915167"
       width="1.0944304"
       height="1.0930212"><feFlood
         flood-opacity="0.498039"
         flood-color="rgb(0,0,0)"
         result="flood"
         id="feFlood11695" /><feComposite
         in="flood"
         in2="SourceGraphic"
         operator="in"
         result="composite1"
         id="feComposite11697" /><feGaussianBlur
         in="composite1"
         stdDeviation="3"
         result="blur"
         id="feGaussianBlur11699" /><feOffset
         dx="6"
         dy="6"
         result="offset"
         id="feOffset11701" /><feComposite
         in="SourceGraphic"
         in2="offset"
         operator="over"
         result="fbSourceGraphic"
         id="feComposite11703" /><feColorMatrix
         result="fbSourceGraphicAlpha"
         in="fbSourceGraphic"
         values="0 0 0 -1 0 0 0 0 -1 0 0 0 0 -1 0 0 0 0 1 0"
         id="feColorMatrix11707" /><feFlood
         id="feFlood11709"
         flood-opacity="0.498039"
         flood-color="rgb(0,0,0)"
         result="flood"
         in="fbSourceGraphic" /><feComposite
         in2="fbSourceGraphic"
         id="feComposite11711"
         in="flood"
         operator="in"
         result="composite1" /><feGaussianBlur
         id="feGaussianBlur11713"
         in="composite1"
         stdDeviation="3"
         result="blur" /><feOffset
         id="feOffset11715"
         dx="6"
         dy="6"
         result="offset" /><feComposite
         in2="offset"
         id="feComposite11717"
         in="fbSourceGraphic"
         operator="over"
         result="composite2" /></filter></defs><rect
     fill="#3693d4"
     fill-opacity="1"
     height="512"
     width="512"
     rx="32"
     ry="32"
     id="rect15"
     x="0"
     y="0"
     style="display:inline"
     inkscape:label="Background" /><path
     d="m 493.19039,17.089998 c -6.5,13.85 -30.7,31.28 -34.7,30.14 -5.7,-1.6 -11.5,-11.29 -7.1,-22.57 -12.4,7.46 -19.1,22.92 -21.6,35.23 l 17.8,23.2 c 8.2,-0.24 20.4,-1.3 27.7,-5.21 14.4,-7.72 17.9,-60.79 17.9,-60.79 z m -72.9,60.03 -36.5,27.990002 8.6,11.1 36.4,-28.010002 z m 33.1,19.84 -0.9,13.350002 -167.5,128.7 10.9,14.2 173.4,-133.1 3.4,-26.080002 z m -93.6,6.450002 -11.1,8.4 28,36.6 11.1,-8.5 z m -15.7,32.1 -11.1,8.6 8.6,11.1 11.1,-8.6 z m -26.5,18 -15.3,11.7 -44.9,-5.9 -33.9,26 11,14.3 27.9,-21.5 19.7,2.6 -39.1,30 c 0,0 -21.1,17.4 -25,20.3 l 10.6,13.5 11.2,-8.6 8.5,11.1 14.2,-10.9 -8.5,-11.1 74.5,-57.3 z m -107.1,44.3 -11.1,8.6 8.5,11.1 11.1,-8.6 z m -51,4.3 c -4.7,0.2 -9.1,1.6 -12.1,3.9 l -5.6,4.3 14,18.2 -14.2,11 -14,-18.3 -23.8,18.3 13.9,18.2 -14.2,11 -14.059998,-18.3 -5.56,4.3 c -3.95,3.1 -7.06,8.9 -7.9,15.4 -0.85,6.4 0.64,13 3.68,16.9 l 17.22,22.4 15.119998,2 91.4,-70.3 -23.7,-30.9 c -3.1,-4 -9,-7.1 -15.4,-7.9 -1.2,-0.1 -2.4,-0.2 -3.6,-0.2 z m 112.4,49.4 -53.5,41.1 0.4,6.1 54.8,-10.6 16.6,-12.8 z m -73.3,16 -28.6,22 3.3,47.2 30,-2.5 z m 184.6,0 c -11.5,0 -23,7 -23,27 v 39 h 46 v -39 c 0,-20 -11.5,-27 -23,-27 z m 64,0 c -11.5,0 -23,7 -23,27 v 39 h 46 v -39 c 0,-20 -11.5,-27 -23,-27 z m -103.9,16.1 c -19.9,5.8 -39.5,13.8 -52.5,26.2 -12.1,11.5 -17.6,28 -20.8,45.2 -3.1,17.3 -4,35.8 -5.2,52.6 -1.3,16.8 -3.3,32 -7.3,41.4 -2,4.6 -4.4,7.7 -7,9.7 -2.6,1.9 -5.8,3 -11,2.8 -9.7,-0.3 -16.8,-7.1 -23.2,-20.6 -6.4,-13.6 -10.6,-32.9 -13.1,-52.2 -1.6,-12.5 -2.4,-25 -2.9,-36.2 l -17.9,1.5 c 0.4,11.4 1.4,24.1 3,36.9 2.6,20.4 6.8,41 14.7,57.6 7.8,16.6 20.6,30.4 38.8,31 8.5,0.3 16.2,-1.9 22.2,-6.3 6,-4.3 10.1,-10.4 12.9,-17.2 5.8,-13.4 7.4,-29.8 8.7,-47 1.3,-17.2 2.2,-35.2 5,-50.7 2.9,-15.5 7.7,-28.1 15.5,-35.5 7.8,-7.4 22.7,-14.3 39,-19.8 v -8.5 c 0,-3.9 0.4,-7.5 1.1,-10.9 z m -190.4,19.1 -35.9,27.5 -15.7,-2.1 -4.819998,36.5 -77.650001,59.3 c -0.21,9.1 2.640001,24 9.240001,38.1 6.18,13.1 15.29,25.3 26.18,32.9 l 52.249998,-76.7 6.2,-47.4 42.7,-32.7 z m 191.3,48.8 v 14 h 142 v -14 z m 16,32 v 110 h 46 v -46 h -32 v -64 z m 32,0 v 46 h 46 v -46 z m 64,0 v 64 h -32 v 46 h 46 v -110 z"
     fill="#ffffff"
     fill-opacity="1"
     id="path11320"
     style="fill:#f8ed76;fill-opacity:1;stroke:#000000;stroke-opacity:1;stroke-width:4;stroke-dasharray:none;filter:url(#filter11705)"
     inkscape:label="Flamer" /></svg>
